<svg xmlns="http://www.w3.org/2000/svg" enable-background="new 0 0 24 24" viewBox="0 0 24 24" id="neoj"><path fill="#1C88BC" d="M1.699,10.72C1.67,16.368,6.152,20.931,11.748,20.957c5.658,0.023,10.212-4.45,10.239-10.053C22.011,5.359,17.495,0.792,11.937,0.75C6.367,0.709,1.725,5.228,1.699,10.72z"></path><path fill="#60AE44" d="M5.99,6.251c1.56,0.008,2.85-1.277,2.85-2.839c0-1.532-1.27-2.817-2.806-2.84C4.492,0.55,3.17,1.84,3.145,3.392C3.12,4.922,4.436,6.244,5.99,6.251z"></path><path fill="#FFF" d="M16.741 14.985c.487-.011.867.356.866.841.001.455-.363.821-.825.832-.483.011-.875-.367-.869-.84C15.918 15.356 16.278 14.996 16.741 14.985zM15.26 16.762c.48.004.853.393.836.875-.015.462-.371.792-.852.791-.496-.004-.859-.375-.841-.858C14.421 17.124 14.806 16.76 15.26 16.762zM12.346 2.378c.463-.023.873.365.884.835.009.456-.348.827-.809.843-.508.017-.865-.32-.869-.818C11.546 2.762 11.88 2.401 12.346 2.378zM10.23 1.631c.463.013.816.376.815.837-.001.449-.373.827-.826.838-.47.012-.871-.38-.869-.849C9.353 1.976 9.737 1.617 10.23 1.631zM7.216 14.595c-.002.452-.372.813-.839.821-.502.007-.86-.345-.854-.838.006-.46.372-.832.821-.836C6.816 13.738 7.22 14.133 7.216 14.595zM6.044 12.476c-.019.468-.385.813-.849.797-.48-.014-.84-.409-.816-.891.023-.46.397-.806.861-.797C5.72 11.595 6.064 11.976 6.044 12.476zM4.725 10.866c-.474.007-.866-.381-.863-.855C3.866 9.56 4.238 9.187 4.694 9.176c.462-.011.827.335.847.803C5.561 10.468 5.203 10.857 4.725 10.866zM4.586 6.912C5.067 6.921 5.441 7.313 5.42 7.788 5.401 8.24 5.021 8.592 4.559 8.586 4.097 8.58 3.735 8.22 3.728 7.759 3.721 7.276 4.098 6.904 4.586 6.912z"></path><path fill="#60AE44" d="M12.814 7.46c-.014 2.705 2.133 4.89 4.813 4.903 2.71.011 4.891-2.131 4.903-4.814.012-2.656-2.151-4.843-4.813-4.863C15.05 2.666 12.827 4.83 12.814 7.46zM9.401 23.385c2.2-.007 4.009-1.822 4.006-4.021 0-2.224-1.811-4.001-4.068-3.991-2.166.009-3.997 1.854-3.975 4.004C5.387 21.572 7.22 23.393 9.401 23.385z"></path><g><path d="M5.845,6.581c-1.745,0-3.164-1.422-3.164-3.17c0-1.747,1.419-3.169,3.164-3.169s3.164,1.422,3.164,3.169C9.009,5.159,7.59,6.581,5.845,6.581z M5.845,1.742c-0.918,0-1.664,0.749-1.664,1.669c0,0.921,0.746,1.67,1.664,1.67s1.664-0.749,1.664-1.67C7.509,2.491,6.763,1.742,5.845,1.742z"></path></g><g><path d="M17.673,13.113c-3.076,0-5.578-2.507-5.578-5.589s2.502-5.589,5.578-5.589c3.075,0,5.577,2.507,5.577,5.589S20.748,13.113,17.673,13.113z M17.673,3.436c-2.249,0-4.078,1.834-4.078,4.089s1.829,4.089,4.078,4.089c2.248,0,4.077-1.834,4.077-4.089S19.921,3.436,17.673,3.436z"></path></g><g><path d="M9.225,24c-2.543,0-4.612-2.073-4.612-4.621s2.069-4.621,4.612-4.621s4.611,2.073,4.611,4.621S11.768,24,9.225,24z M9.225,16.258c-1.716,0-3.112,1.4-3.112,3.121S7.509,22.5,9.225,22.5s3.111-1.4,3.111-3.121S10.94,16.258,9.225,16.258z"></path></g><g><path d="M15.741,2.381c-0.104,0-0.21-0.021-0.311-0.067c-1.894-0.862-4.091-1.05-6.151-0.509C8.886,1.908,8.47,1.671,8.363,1.27c-0.104-0.4,0.135-0.811,0.535-0.916c2.394-0.628,4.946-0.409,7.153,0.595c0.377,0.172,0.544,0.616,0.372,0.993C16.298,2.218,16.025,2.381,15.741,2.381z"></path></g><g><path d="M4.223,18.59c-0.202,0-0.403-0.081-0.551-0.241c-1.885-2.041-2.922-4.682-2.922-7.438c0-1.976,0.53-3.909,1.535-5.591c0.211-0.355,0.671-0.473,1.028-0.259C3.669,5.273,3.785,5.734,3.572,6.09C2.707,7.539,2.25,9.206,2.25,10.911c0,2.377,0.896,4.657,2.523,6.42c0.281,0.305,0.263,0.779-0.042,1.06C4.587,18.524,4.404,18.59,4.223,18.59z"></path></g><g><path d="M14.429,21.426c-0.327,0-0.627-0.215-0.721-0.544c-0.114-0.398,0.116-0.813,0.515-0.927c3.47-0.991,6.089-3.93,6.676-7.487c0.053-0.364,0.365-0.646,0.742-0.646c0.414,0,0.75,0.331,0.75,0.745c0,0.041-0.003,0.091-0.01,0.131c-0.677,4.134-3.718,7.549-7.746,8.699C14.565,21.417,14.496,21.426,14.429,21.426z"></path></g></svg>